M48
INCH,LZ
T01C.013
T02C.028
T03C.035
T04C.036
T05C.04
T06C.042
;LEADER: 12 
;HEADER: 
;CODE  : ASCII 
;FILE  : dog2-1-2.drl for  ... layers TOP and BOTTOM
;DESIGN: dog2.brd
;T01 Holesize 1. = 13.000000 Tolerance = +0.000000/-0.000000 PLATED MILS Quantity = 61
;T02 Holesize 2. = 28.000000 Tolerance = +0.000000/-0.000000 PLATED MILS Quantity = 2
;T03 Holesize 3. = 35.000000 Tolerance = +0.000000/-0.000000 PLATED MILS Quantity = 16
;T04 Holesize 4. = 36.000000 Tolerance = +0.000000/-0.000000 PLATED MILS Quantity = 11
;T05 Holesize 5. = 40.000000 Tolerance = +3.000000/-3.000000 PLATED MILS Quantity = 14
;T06 Holesize 6. = 42.000000 Tolerance = +0.000000/-0.000000 PLATED MILS Quantity = 40
%
G90
T01
X00110236Y00192913
Y00184776
X00070603Y00188976
X00141732Y00161417
X00102362Y00165354
X00094488Y00169291
X00051181Y00181102
X00062992Y00062992
X00153543Y00122047
Y00137795
X00212598Y00161417
X00232283
X00066929Y00047244
X00129921Y00094488
X00192913Y00098425
X00200787
X00208661Y00165354
X00229946
X00241023Y00111102
X00181102Y00059055
X00224409Y00133858
X00161417Y00066929
X00169291
X00204724Y00074803
X00224409Y00066929
X00188976Y00059055
X00125984
X00086614
X00070866Y00035433
X00133858Y0003937
X00145669Y00047244
X0015748Y00051181
X00165354
X00177165Y00047244
X00185039Y00051181
X00216535Y00055118
X00110236Y00169291
X0015748Y00173228
X00114173Y00070866
X00173228Y0007874
X00188976Y0011811
X00240157Y00133858
X00106299Y00074803
X00098425
Y00110236
X00090551
X00098425Y00043307
X00074803
X00185039Y0003937
X0019685Y00062992
X00208661Y00066929
X00125984Y00051181
X00090551
X00114173Y00110236
Y00122047
X00090551Y00173228
X00098425Y0015748
X00129921Y00011811
X00161043Y00130295
X00137795
X00165429Y00110236
T02
X00232283Y00015748
X00259783
T03
X00259842Y00181102
R15Y-0001
T04
X0011811Y00181102
R03X0001
X00066929
R02X0001
X00181102
R03X0001
T05
X00019685Y00079803
Y00069803
Y00111299
Y00101299
Y00142795
Y00132795
Y00174291
Y00164291
X00126358Y00141732
X00133858Y00149232
X00141358Y00141732
X00126358Y00114173
X00133858Y00121673
X00141358Y00114173
T06
X00204724Y00027559
Y00017559
X00194724Y00027559
Y00017559
X00184724Y00027559
Y00017559
X00174724Y00027559
Y00017559
X00164724Y00027559
Y00017559
X00154724Y00027559
Y00017559
X00144724Y00027559
Y00017559
X00134724Y00027559
Y00017559
X00124724Y00027559
Y00017559
X00114724Y00027559
Y00017559
X00104724Y00027559
Y00017559
X00094724Y00027559
Y00017559
X00084724Y00027559
Y00017559
X00074724Y00027559
Y00017559
X00064724Y00027559
Y00017559
X00054724Y00027559
Y00017559
X00044724Y00027559
Y00017559
X00034724Y00027559
Y00017559
X00024724Y00027559
Y00017559
X00014724Y00027559
Y00017559
M30
